<svg width="22" height="22" viewBox="0 0 22 22" fill="none" xmlns="http://www.w3.org/2000/svg">
<path d="M19.2987 6.58273C19.3073 6.77601 19.3073 6.96144 19.3073 7.15472C19.3152 13.024 15.0032 19.8 7.11699 19.8C4.77914 19.795 2.49476 19.1002 0.549988 17.8027C0.888785 17.8452 1.22997 17.8656 1.57142 17.864C3.51279 17.8612 5.39336 17.1866 6.89385 15.9547C5.98576 15.9275 5.10946 15.6142 4.38991 15.0596C3.67035 14.5049 3.14428 13.7373 2.8867 12.8661C3.52848 12.9987 4.19301 12.9717 4.82192 12.7875C3.83677 12.5678 2.95726 12.0158 2.33113 11.2241C1.70501 10.4324 1.37044 9.44941 1.38363 8.44015V8.38751C1.97534 8.73127 2.64347 8.92193 3.32749 8.94222C2.4137 8.29115 1.77258 7.32549 1.52722 6.23064C1.28186 5.13578 1.44953 3.98887 1.99806 3.01008C3.05361 4.37086 4.38851 5.48964 5.91286 6.29105C7.43721 7.09246 9.1156 7.5579 10.835 7.65601C10.6639 6.90056 10.6878 6.11399 10.9046 5.37034C11.1213 4.6267 11.5238 3.95046 12.0741 3.4053C12.4787 3.00701 12.96 2.69501 13.4888 2.4882C14.0175 2.28138 14.5828 2.18407 15.1503 2.20214C15.7178 2.22021 16.2757 2.35329 16.7902 2.59333C17.3048 2.83336 17.7652 3.17535 18.1437 3.59858C19.1092 3.4011 20.032 3.03399 20.8693 2.5143C20.5549 3.53206 19.8858 4.40326 18.9836 4.96965C19.8358 4.86335 20.6672 4.62975 21.45 4.27665C20.8749 5.16653 20.1465 5.94732 19.2987 6.58273Z" fill="white"/>
</svg>
